<svg xmlns="http://www.w3.org/2000/svg" xmlns:xlink="http://www.w3.org/1999/xlink" viewBox="0 0 500 500"><defs><style>.cls-1{fill:none;}.cls-2{fill:#77b0e8;}.cls-3{clip-path:url(#clip-path);}.cls-4{fill:#c4803d;}.cls-5{fill:#dba54d;}.cls-6{fill:#fff;}.cls-7{fill:#f4cfa2;}.cls-8{fill:#dda383;}.cls-9{fill:#723c1e;}.cls-10{fill:#633422;}.cls-11{fill:#351c17;}</style><clipPath id="clip-path"><path class="cls-1" d="M0,250C0,111.93,111.93,0,250,0S500,111.93,500,250,388.07,500,250,500,0,388.07,0,250"/></clipPath></defs><g id="Objects"><path class="cls-2" d="M0,250C0,111.93,111.93,0,250,0S500,111.93,500,250,388.07,500,250,500,0,388.07,0,250"/><g class="cls-3"><path class="cls-4" d="M381.64,568.84H112.92l4.81-159.67c1.31-44.92,27.38-80.67,72.66-80.67H311.61c45.29,0,63.92,32.09,65.22,77Z"/><path class="cls-5" d="M339,333.54a70.36,70.36,0,0,0-27.35-5H190.39A72.29,72.29,0,0,0,161.9,334c-4.18,14-6.51,30.31-6.83,47.85l-3.5,187H347.22l-3.5-191.24c-.3-16.37-1.82-31.28-4.76-44.06"/><path class="cls-6" d="M300.53,328.5H207.92c2,30.09,21.92,53.75,46.31,53.75s44.35-23.66,46.3-53.75"/><path class="cls-7" d="M286.62,328.5H221c3.89,21.82,17.08,37.9,32.8,37.9s28.91-16.08,32.81-37.9"/><polygon class="cls-6" points="310.23 405.53 315.31 422.59 333.11 423.03 318.45 433.14 323.54 450.2 309.4 439.39 294.74 449.49 300.65 432.7 286.51 421.89 304.31 422.32 310.23 405.53"/><rect class="cls-7" x="231.43" y="297.1" width="39.63" height="46.65"/><path class="cls-8" d="M257.84,327.4c3.5.53,8.55,1.57,13.22,1.47V297.1H231.43v20.49C238.94,323.9,248,325.91,257.84,327.4Z"/><path class="cls-7" d="M286.83,102.66H218.6A45.29,45.29,0,0,0,173.31,148v84.24a79.41,79.41,0,0,0,79.4,79.41c43.86,0,79.41-21.07,79.41-64.92V148a45.28,45.28,0,0,0-45.29-45.29"/><path class="cls-8" d="M195.13,151.06a1.78,1.78,0,0,1,1.73-1.73c12.75,0,24.48,4.66,36.69,7.68,14.13,3.49,28.42,3.94,42.9,3.84,19.62-.13,39.43-2.72,55.67-12.94a45.29,45.29,0,0,0-45.29-45.25H218.6A45.29,45.29,0,0,0,173.31,148v46.53C187.76,186.38,193.36,166.56,195.13,151.06Z"/><path class="cls-9" d="M151.27,106s-5-58,70.65-45.29c0,0,10.42-18.12,7.7-30.35,0,0,26.27,12.23,23.55,36.69,0,0,12.68-16.31,9.51-43.93,0,0,37.14,13.58,36.23,46.65,0,0,10-26.72-2.26-43,0,0,41.66,15,47.1,59.78s-38,58-85.6,51.63-65.22-14-69.29-13.58-11.33,8.15-9.51,11.77,19.47,76.09-18.57,91.49c0,0-8.61-4.53-15.85-29.44s-15.85-61.59-15.4-65.22,7.7-19.93,21.74-27.17"/><path class="cls-10" d="M343.75,86.5a70,70,0,0,0-11.57-31.23c2.38,18.59-6.79,39.78-22.52,49.18-13.41,8-28.77,13.78-44.29,8.49-9.69-3.3-9-14-9.72-22.47-11.46,2-21.47,10.69-33,13.12-3.08.65-7.49,1.57-10.34-.41-4.63-3.23-3-9.09-3.6-14.06A112.89,112.89,0,0,1,190,95.18c-3.89.87-8.72,2.77-12.81,2.17-4.37-.64-5.08-5.77-6.14-9.62-8,2.62-18.1,8.84-19.62,17.26a1.64,1.64,0,0,1-.18.47c0,.32,0,.52,0,.52-14,7.24-21.29,23.55-21.74,27.17s8.15,40.31,15.4,65.22,15.85,29.44,15.85,29.44c38-15.4,20.38-87.86,18.57-91.49s5.43-11.32,9.51-11.77,21.74,7.24,69.29,13.58S349.18,131.34,343.75,86.5Z"/><path class="cls-7" d="M180.25,215.58s.46-24-20.38-29.44-30.12,18.57-23.09,39,29.2,23.33,41.44,20.38Z"/><path class="cls-11" d="M207,176.4c-.23-.13.08-1.12.8-2.7a22.83,22.83,0,0,1,3.82-5.82,17.87,17.87,0,0,1,7.92-5.11,16.11,16.11,0,0,1,9.48.57,19.13,19.13,0,0,1,5.72,3.22,11.46,11.46,0,0,1,2.43,2.5c.87,1.29.58,1.78.18,2.14s-.84.59-2.08-.06-3.28-2.39-7.61-4a13.81,13.81,0,0,0-7.27-.74,16.64,16.64,0,0,0-6.81,3.56c-3.8,3.32-6,6.86-6.58,6.49"/><path class="cls-11" d="M317.71,172.56c-.54.44-2.74-2.64-6.58-4.24a10.11,10.11,0,0,0-6.34-.32,22.15,22.15,0,0,0-6,2.87c-3.48,2.39-5.17,4-6.26,4.57s-1.52.41-2,.06-.73-.79-.1-2,2.14-3.24,6.12-6A21.32,21.32,0,0,1,304,164.4a12.27,12.27,0,0,1,8.34,1.39c4.51,2.85,5.66,6.63,5.35,6.77"/><path class="cls-11" d="M149.23,207c-.15,0-.23-1.42,1.06-3.56a5.62,5.62,0,0,1,3.8-2.57,8.5,8.5,0,0,1,5.74,1.4c3.7,2.38,6.27,6.76,8.07,11.46a34.89,34.89,0,0,1,2.09,7.6c.31,2.68.31,5.81-1.76,8.45a5,5,0,0,1-4.37,1.82,6.35,6.35,0,0,1-3.57-1.66,11.63,11.63,0,0,1-3.26-4.82,8,8,0,0,1,.75-7c1.77-2.46,2.37-2,2.55-1.84s.17.49-.88,2.72a6.81,6.81,0,0,0-.12,5.28,9.86,9.86,0,0,0,2.63,3.65c1.28,1.14,3,1.55,4.24.11s1.49-4.07,1.19-6.39a33.61,33.61,0,0,0-1.81-7c-1.58-4.48-3.84-8.48-6.74-10.64a7.26,7.26,0,0,0-4.4-1.53,4.44,4.44,0,0,0-3.11,1.53c-1.42,1.64-1.8,3-2.1,3"/><path class="cls-11" d="M271.51,244.79c-.23-.3,1.13-1.74,3.38-3.95,1.11-1.11,2.46-2.41,3.81-3.89a10.1,10.1,0,0,0,1.64-2.22h0c0,.05,0-.07-.22-.35l-1-1.39c-5.81-7.6-10.49-14-9.87-14.46s6.14,5.07,12.07,12.83c.37.51.73,1,1.08,1.54a3,3,0,0,1,.44,2.83,10.57,10.57,0,0,1-2.32,3,39.15,39.15,0,0,1-4.38,3.63c-2.61,1.87-4.4,2.77-4.63,2.47"/><path class="cls-11" d="M283.29,269.93c.27.26-1.46,2.4-5.29,4.37a29.34,29.34,0,0,1-16.33,2.8,31.17,31.17,0,0,1-15.44-6c-3.42-2.56-4.9-4.83-4.61-5.06s2.18,1.43,5.67,3.45A36.94,36.94,0,0,0,262,274.38a33.76,33.76,0,0,0,15.27-1.85c3.76-1.4,5.82-2.89,6.07-2.6"/><path class="cls-8" d="M211.28,219.66c.43.34-.78,2.41-2.26,4.11s-1.86,1.46-2.27,1.09-.72-.69.76-2.4,3.15-3.31,3.77-2.8"/><path class="cls-8" d="M218.52,220.56c.43.35-.77,2.42-2.25,4.12s-1.86,1.45-2.27,1.09-.73-.7.76-2.4,3.14-3.31,3.76-2.81"/><path class="cls-8" d="M316.58,216.94c.42.35-.78,2.41-2.26,4.12s-1.86,1.45-2.27,1.09-.72-.7.76-2.41,3.15-3.31,3.77-2.8"/><path class="cls-8" d="M323.82,217.84c.43.35-.77,2.42-2.25,4.12s-1.86,1.46-2.28,1.09-.71-.69.77-2.4,3.14-3.31,3.76-2.81"/><path class="cls-11" d="M219.2,200c0-8.12,3.15-14.71,7-14.71s7,6.59,7,14.71-3.14,14.72-7,14.72-7-6.58-7-14.72"/><path class="cls-11" d="M299.14,197.46c0-8.13,3.14-14.71,7-14.71s7,6.58,7,14.71-3.15,14.72-7,14.72-7-6.59-7-14.72"/></g></g></svg>