<svg xmlns="http://www.w3.org/2000/svg" xmlns:xlink="http://www.w3.org/1999/xlink" viewBox="0 0 500 500"><defs><style>.cls-1{fill:none;}.cls-2{fill:#ef6085;}.cls-3{clip-path:url(#clip-path);}.cls-4{fill:#5873a8;}.cls-5{fill:#fff;}.cls-6{fill:#f7dcb5;}.cls-7{fill:#29353a;}.cls-8{fill:#ddb392;}.cls-9{fill:#351c17;}</style><clipPath id="clip-path"><path class="cls-1" d="M0,250C0,111.93,111.93,0,250,0S500,111.93,500,250,388.07,500,250,500,0,388.07,0,250"/></clipPath></defs><g id="Objects"><path class="cls-2" d="M0,250C0,111.93,111.93,0,250,0S500,111.93,500,250,388.07,500,250,500,0,388.07,0,250"/><g class="cls-3"><path class="cls-4" d="M385.46,565H102.4l5.08-168.19c1.67-57.5,18.36-85,76.53-85H311.7c57.87,0,67.33,33.8,68.7,81.11Z"/><path class="cls-5" d="M344.49,565H147.13l3.53-168.19c1.17-57.5,12.81-85,53.36-85h89c40.35,0,46.94,33.8,47.9,81.11Z"/><path class="cls-1" d="M348.88,318.94c-9.38-4.56-21.49-7.06-37.18-7.06H184c-15.87,0-28.63,2.06-38.86,6.2-3,51.81-2,247-2,247H349.21s1.67-198.86-.33-246.1"/><path class="cls-4" d="M302.47,311.88H188.79c7.5,33.72,40,64.35,63.25,65.67,15.13.87,43.67-31.57,50.43-65.67"/><path class="cls-6" d="M203.62,311.88c9.62,28.27,32.06,51.64,48.7,52.79,10.87.76,30.1-23.85,38.54-52.79Z"/><path class="cls-7" d="M245.52,18.33c-70.92,0-117,47.39-117,126.89v138c0,14.63,3.82,16.53,47.71,16.53H337.12c32.44,0,31.17-5.72,31.17-24.17V140.77c0-52.79-6.37-122.44-122.77-122.44"/><rect class="cls-6" x="226.28" y="281.67" width="41.03" height="47.71"/><path class="cls-8" d="M246,306.53c7.79.31,14.91-.43,21.31-3.87v-21h-41v16.76C232.51,302.14,238.86,306.26,246,306.53Z"/><path class="cls-8" d="M172.37,183.87s-4.29-25.29-20.51-24.81-21,27.19-12.88,45.8,28.62,14.79,30.53,7.63,2.86-28.62,2.86-28.62"/><path class="cls-8" d="M325,183.87s4.44-25.29,21.27-24.81,21.75,27.19,13.35,45.8S330,219.65,328,212.49s-3-28.62-3-28.62"/><path class="cls-6" d="M247.75,293.59h0c-45.32,0-80.62-33.4-80.62-78.71l-1.43-90.41A55.57,55.57,0,0,1,221.28,68.9h52.94a55.58,55.58,0,0,1,55.59,55.57l-1.43,89.93c0,45.32-35.31,79.19-80.63,79.19"/><path class="cls-8" d="M174.44,138.35c7.58-.5,15.16-.23,22.75-.12,16.73.22,33.38-.88,50.09-1.13,27.47-.43,55,0,82.36-2.19l.17-10.44A55.58,55.58,0,0,0,274.22,68.9H221.28a55.57,55.57,0,0,0-55.58,55.57l.23,14.71C168.75,138.85,171.58,138.54,174.44,138.35Z"/><path class="cls-9" d="M146.3,182.12c-.15.07-.66-1.21-.51-3.62a7.19,7.19,0,0,1,1.64-4.18,6.75,6.75,0,0,1,5.67-2c2.55.38,4.28,2.63,5.25,4.74a28.63,28.63,0,0,1,2.1,7,57.3,57.3,0,0,1,.84,7.62c0,2.43.5,5.53-1.45,8.3a5.94,5.94,0,0,1-3.89,2.42,6.48,6.48,0,0,1-3.9-.59,5.35,5.35,0,0,1-3.2-5.45,9.76,9.76,0,0,1,3.15-6.14c2.26-1.87,2.73-1.4,2.88-1.13s.15.57-1.43,2.48a9.32,9.32,0,0,0-2,5,2.7,2.7,0,0,0,1.8,2.74,3.43,3.43,0,0,0,4.34-1c1.17-1.52,1-4,1-6.53a62.38,62.38,0,0,0-.66-7.25,28.93,28.93,0,0,0-1.68-6.43c-.77-1.92-2-3.38-3.33-3.75a5.24,5.24,0,0,0-4.08,1,6.11,6.11,0,0,0-1.74,3.11c-.51,2.11-.44,3.51-.74,3.59"/><path class="cls-9" d="M352.71,176.39c-.09,0-.26-.26-.48-.81a10.94,10.94,0,0,0-1-2.32,3.69,3.69,0,0,0-2.67-2,5.67,5.67,0,0,0-4.11,1.73c-2.72,2.39-4.8,6.47-5.74,11-.77,4.39-.89,10,1.1,13.81,1.13,1.8,2.47,1.92,3.64.95a6,6,0,0,0,2-3.55c.55-2.67,0-4.17-.66-4.89a7.07,7.07,0,0,0-1.58-1.19.61.61,0,0,1-.31-.58c0-.19,0-.39.48-.5a3.42,3.42,0,0,1,2.74.8c1.46,1,2.44,3.68,1.89,6.8a8.4,8.4,0,0,1-2.83,5.27,4.87,4.87,0,0,1-4,1.15,5.79,5.79,0,0,1-3.69-2.79,17.81,17.81,0,0,1-1.95-8,30.7,30.7,0,0,1,.65-7.75c1.16-4.93,3.53-9.33,6.87-12a7.45,7.45,0,0,1,5.66-1.93,4.89,4.89,0,0,1,2.43,1.23,7.33,7.33,0,0,1,1.18,1.81,7.11,7.11,0,0,1,.62,2.79c0,.66,0,1-.15,1.07"/><path class="cls-9" d="M307.23,157.31c-.61.4-2.65-2.94-6.38-5.42a10.31,10.31,0,0,0-6.44-1.84,16.45,16.45,0,0,0-6.55,1.87c-3.83,2.08-5.7,3.65-6.89,4.18s-1.62.33-2.05-.06-.73-.87,0-2.1,2.49-3.3,7-5.76a17.51,17.51,0,0,1,8.46-2,12.52,12.52,0,0,1,8.21,3.33c4,3.74,4.94,7.63,4.59,7.79"/><path class="cls-9" d="M188.6,155.72c-.35-.29,1.25-3.36,4.84-6.4a16,16,0,0,1,7.09-3.33,13.07,13.07,0,0,1,7.95,1.24c4.33,2.36,5.45,4.76,6,5.9s.05,1.66-.44,2-1,.48-1.92-.15-2.36-2.25-5.54-4a10.59,10.59,0,0,0-5.55-1.15c-2.06,0-4.09,1.07-5.92,1.95-3.56,2.06-6,4.41-6.51,3.94"/><path class="cls-9" d="M247.43,226c-.17.34-1.6.08-3.64-1a12.5,12.5,0,0,1-3.29-2.62,6.21,6.21,0,0,1-1.39-2.51,4.31,4.31,0,0,1,.82-3.45,17.87,17.87,0,0,1,7.55-5.21c2.1-.84,3.74-.91,3.77-.44s-1,1-2.83,2.24-4.41,2.91-6.15,5.08c-.35.57-.45.85-.4,1.13a3.81,3.81,0,0,0,.72,1.52,17.35,17.35,0,0,0,2.4,2.6c1.57,1.43,2.63,2.34,2.44,2.7"/><path class="cls-9" d="M269.46,247.56c.31.1-.17,2.82-3.26,5.94a11.26,11.26,0,0,1-3,2.05,16.44,16.44,0,0,1-3.92,1.14,46.51,46.51,0,0,1-8.87.67c-3.13,0-6.06-.21-8.76-.47a16.84,16.84,0,0,1-7.19-2.23,8.47,8.47,0,0,1-3.43-3.85c-.45-1.15-.34-1.88-.15-1.9.36-.13,1.15,2.39,4.56,4a17.67,17.67,0,0,0,6.41,1.35c2.62.12,5.55.21,8.57.24,6-.05,11.63-.14,14.44-2.53,3-2.29,4.18-4.61,4.58-4.38"/><path class="cls-9" d="M200.21,181.48c0-6.67,3-12.08,6.67-12.08s6.68,5.41,6.68,12.08-3,12.09-6.68,12.09-6.67-5.41-6.67-12.09"/><path class="cls-9" d="M284.33,181.48c0-6.67,3-12.08,6.67-12.08s6.68,5.41,6.68,12.08-3,12.09-6.68,12.09-6.67-5.41-6.67-12.09"/><path class="cls-9" d="M194.64,169.4c.56-.24,1.58.9,3,1.94a22.34,22.34,0,0,0,4.95,2.65c3.21,1.16,3.3,1.81,3.14,3-.1,1.06-.63,2.33-4.73.84a12.18,12.18,0,0,1-5.57-4.55c-1.24-2-1.33-3.73-.83-3.92"/><path class="cls-9" d="M301.65,169.4c.54.15.7,1.6,0,3.42a9.45,9.45,0,0,1-3.93,4.75c-3.41,1.81-4.09.49-4.21-.54-.2-1.23-.22-1.84,2.06-3.06a19.12,19.12,0,0,0,3.56-2.7c1.08-1,1.91-2.05,2.48-1.87"/><path class="cls-8" d="M194.8,206.92a1.91,1.91,0,1,1,1.91,1.91,1.9,1.9,0,0,1-1.91-1.91"/><path class="cls-8" d="M188.76,212.81a1.91,1.91,0,1,1,1.91,1.91,1.91,1.91,0,0,1-1.91-1.91"/><path class="cls-8" d="M201.79,213.13a1.91,1.91,0,1,1,1.91,1.9,1.92,1.92,0,0,1-1.91-1.9"/><path class="cls-8" d="M299,204.06a1.91,1.91,0,1,1,1.9,1.91,1.91,1.91,0,0,1-1.9-1.91"/><path class="cls-8" d="M292.91,210a1.91,1.91,0,1,1,1.91,1.9,1.92,1.92,0,0,1-1.91-1.9"/><path class="cls-8" d="M306,210.26a1.91,1.91,0,1,1,1.91,1.91,1.91,1.91,0,0,1-1.91-1.91"/><path class="cls-7" d="M156.16,130.44H188.6A69.89,69.89,0,0,1,202,96.09l-1.91,35.3h40.54s2.87-20,7.64-32.91l2.86,33.39,39.6-.48s1.43-12.88-.48-33.87c0,0,8.59,19.08,9.54,32.92h41s9.07-75.86-76.33-75.86S157.59,67.46,156.16,130.44"/></g></g></svg>