<svg xmlns="http://www.w3.org/2000/svg" xmlns:xlink="http://www.w3.org/1999/xlink" viewBox="0 0 500 500"><defs><style>.cls-1{fill:none;}.cls-2{fill:#77b0e8;}.cls-3{clip-path:url(#clip-path);}.cls-4{fill:#332a23;}.cls-5{fill:#35752e;}.cls-6{fill:#4d9e3f;}.cls-7{fill:#fff;}.cls-8{fill:#dda485;}.cls-9{fill:#bc8268;}.cls-10{fill:#351c17;}</style><clipPath id="clip-path"><path class="cls-1" d="M0,250C0,111.93,111.93,0,250,0S500,111.93,500,250,388.07,500,250,500,0,388.07,0,250"/></clipPath></defs><g id="Objects"><path class="cls-2" d="M0,250C0,111.93,111.93,0,250,0S500,111.93,500,250,388.07,500,250,500,0,388.07,0,250"/><g class="cls-3"><path class="cls-4" d="M344.69,67.47S354.34,27,291.94,18.58,151.06,28.23,134.33,90s52.76,74.62,60.47,74.62,124.8,57.26,124.8,57.26S376.85,135,377.49,115.08s-12.86-30.24-32.8-47.61"/><path class="cls-5" d="M102.17,580.82H388.43l-5.12-170.1c-1.39-47.85-29.17-85.93-77.4-85.93H176.77c-48.24,0-68.1,34.18-69.49,82Z"/><path class="cls-6" d="M147.63,330.16a75,75,0,0,1,29.14-5.37H305.91a77.07,77.07,0,0,1,30.35,5.9c4.45,14.9,6.93,32.3,7.27,51l3.73,199.16H138.83l3.75-203.72c.3-17.44,1.92-33.33,5-46.94"/><path class="cls-7" d="M239.83,360.82c-60.11-2.06-72.05-42.39-40.2-63.11s97.13-10.2,100,17.85-22.52,46.53-59.83,45.26"/><path class="cls-8" d="M240.15,348.92S217,347.3,208.63,323.18h63.68s-10.93,26.7-32.16,25.74"/><rect class="cls-8" x="222.38" y="296.65" width="38.84" height="37.63"/><path class="cls-9" d="M261.22,314.37V296.65H222.38v21.73C234.67,319.07,250.4,319.82,261.22,314.37Z"/><path class="cls-8" d="M207,84.2h68.83c26.64,0,48.24-1.56,48.24,25.09v112.9c0,46.72-41.73,84.59-88.45,84.59s-82.5-17-82.5-63.69l5.62-110.64A48.26,48.26,0,0,1,207,84.2"/><path class="cls-9" d="M271.1,123.13c5.39-1.17,28.06-9.38,30.7-.85,2.08,6.72,6,14,9,20.39,3.16,6.79,7.31,10.53,13.27,12.22v-45.6c0-26.65-21.6-25.09-48.24-25.09H207a48.23,48.23,0,0,0-46.6,35.89C192.34,140.44,236.15,130.76,271.1,123.13Z"/><path class="cls-9" d="M290.16,202c.46.37-.82,2.57-2.4,4.39s-2,1.54-2.42,1.16-.77-.74.81-2.56,3.35-3.53,4-3"/><path class="cls-9" d="M297.88,203c.46.37-.82,2.56-2.4,4.39s-2,1.54-2.42,1.15-.77-.74.81-2.55,3.35-3.54,4-3"/><path class="cls-9" d="M174.05,202.68c.45.38-.83,2.58-2.41,4.39s-2,1.55-2.42,1.16-.76-.74.82-2.56,3.34-3.52,4-3"/><path class="cls-9" d="M181.76,203.65c.46.37-.82,2.57-2.39,4.39s-2,1.55-2.43,1.16-.76-.74.82-2.56,3.34-3.53,4-3"/><path class="cls-10" d="M173.89,159.14c-.36-.28,1.31-3.62,5.06-7a18.38,18.38,0,0,1,7.37-4,14.94,14.94,0,0,1,8.56.44c4.9,2,6.45,4.4,7.17,5.55s.29,1.75-.18,2.09-.92.57-2,0-2.75-2.16-6.43-3.63a12.5,12.5,0,0,0-6.3-.6,18.38,18.38,0,0,0-6.39,2.54c-3.77,2.43-6.32,5.06-6.85,4.6"/><path class="cls-10" d="M293.87,160.11c-.54.46-3.17-2.49-7.34-4.71a15.93,15.93,0,0,0-7-1.94,17.45,17.45,0,0,0-7,1.26c-4.17,1.62-6.14,3.18-7.4,3.63s-1.65.25-2.08-.17-.7-.92.16-2.14,2.81-3.32,7.83-5.29a18.43,18.43,0,0,1,8.81-1.19,17,17,0,0,1,8.32,3.29c4.4,3.31,6.12,7,5.76,7.26"/><path class="cls-10" d="M224.07,232.16c-.28.29-1.72-.58-3.76-2.32a37.4,37.4,0,0,1-3.39-3.29,14.36,14.36,0,0,1-1.88-2.46c-.28-.81-.74-1.81,0-2.56.3-.33.64-.75.94-1l.7-.49c7.27-4.22,13.56-5.87,13.87-5.23.41.79-5.6,3.79-12.27,7.67l-.54.37c-.06,0,0,0,0,0v0a18.23,18.23,0,0,0,1.34,2l2.82,3.58c1.62,2.07,2.55,3.46,2.27,3.75"/><path class="cls-10" d="M208.31,257.57c.33-.26,2.26,2.18,6.48,4.42s10.7,3.73,18,2.51A63.86,63.86,0,0,0,251,259.44c4.44-2,6.91-3.78,7.17-3.48s-1.82,2.74-6.21,5.32a50.37,50.37,0,0,1-18.76,6.11,32.63,32.63,0,0,1-11.05-.15,23.58,23.58,0,0,1-8.41-3.48c-4.34-2.95-5.76-6-5.42-6.19"/><path class="cls-10" d="M182.26,184.56c0-7.47,2.88-13.52,6.43-13.52s6.44,6.05,6.44,13.52-2.89,13.5-6.44,13.5-6.43-6-6.43-13.5"/><path class="cls-10" d="M272,183.59c0-7.46,2.88-13.51,6.42-13.51s6.44,6,6.44,13.51S282,197.1,278.42,197.1s-6.42-6-6.42-13.51"/><path class="cls-7" d="M205.09,409.51c-.65-21.46,7.95-43.41,8.32-44.33l7.18,2.85c-.09.21-8.39,21.41-7.78,41.24Z"/><path class="cls-7" d="M269.08,407.68c-7.55-17.81-9.23-38.61-9.29-39.49l7.69-.59c0,.2,1.66,20.45,8.71,37.06Z"/><path class="cls-4" d="M344.69,67.47S354.34,27,291.94,18.58,151.06,28.23,134.33,90c-.49,1.8-.88,3.56-1.23,5.27a62.92,62.92,0,0,0,21.17,11.13S225.36,131.81,313.49,98c0,0-11.26,56.29,12.87,95.85a36.5,36.5,0,0,0,6.2,7.76c16.94-26.92,44.49-72.76,44.93-86.56.65-19.94-12.86-30.24-32.8-47.61"/><path class="cls-8" d="M316.71,202.48s-.49-27.14,21.71-33.29,32.08,21,24.6,44-31.12,26.37-44.15,23Z"/><path class="cls-10" d="M351.34,190.4c.16,0,.26-1.62-1.23-4.09a6.46,6.46,0,0,0-4.36-3,9.84,9.84,0,0,0-6.61,1.61c-4.25,2.74-7.21,7.78-9.29,13.18a40.55,40.55,0,0,0-2.39,8.75c-.36,3.07-.36,6.67,2,9.71a5.76,5.76,0,0,0,5,2.09,7.31,7.31,0,0,0,4.12-1.9,13.4,13.4,0,0,0,3.75-5.55,9.19,9.19,0,0,0-.87-8c-2-2.83-2.73-2.36-2.93-2.12-.36.37-.2.57,1,3.13a7.81,7.81,0,0,1,.14,6.08,11.34,11.34,0,0,1-3,4.2c-1.46,1.3-3.5,1.78-4.87.12s-1.72-4.68-1.37-7.35a39,39,0,0,1,2.09-8.07c1.81-5.14,4.41-9.75,7.75-12.22a8.24,8.24,0,0,1,5-1.77,5.09,5.09,0,0,1,3.58,1.77c1.63,1.87,2.07,3.47,2.42,3.43"/></g></g></svg>