<svg xmlns="http://www.w3.org/2000/svg" xmlns:xlink="http://www.w3.org/1999/xlink" viewBox="0 0 500 500"><defs><style>.cls-1{fill:none;}.cls-2{fill:#ef6085;}.cls-3{clip-path:url(#clip-path);}.cls-4{fill:#332a23;}.cls-5{fill:#4d2766;}.cls-6{fill:#70307f;}.cls-7{fill:#bc7d64;}.cls-8{fill:#9b5846;}.cls-9{fill:#351c17;}.cls-10{fill:#89293e;}.cls-11{fill:#ca4456;}</style><clipPath id="clip-path"><path class="cls-1" d="M0,250C0,111.93,111.93,0,250,0S500,111.93,500,250,388.07,500,250,500,0,388.07,0,250"/></clipPath></defs><g id="Objects"><path class="cls-2" d="M0,250C0,111.93,111.93,0,250,0S500,111.93,500,250,388.07,500,250,500,0,388.07,0,250"/><g class="cls-3"><path class="cls-4" d="M173.46,72.46s17.21-50.73,99.18-38.95,132.25,86.06,82.88,116.4v71.56c0,11.32,10,14,9.06,47.1S335.6,332,255,332s-119.56-12.23-134.06-46.66,7.25-52.08,9.06-68.83,1.81-50.73,1.81-87,28.54-60.24,41.67-57.07"/><path class="cls-5" d="M385.27,550.72H116.54l4.82-159.67c1.3-44.92,27.37-80.67,72.65-80.67H315.24c45.28,0,63.91,32.09,65.22,77Z"/><path class="cls-6" d="M342.58,315.42a70.49,70.49,0,0,0-27.34-5H194a72.33,72.33,0,0,0-28.49,5.54c-4.18,14-6.51,30.32-6.82,47.85l-3.51,187H350.85l-3.51-191.24c-.29-16.37-1.82-31.28-4.76-44.06"/><path class="cls-7" d="M260.87,360.51c22.19,0,53.89-3.63,53.89-36.24,0-5.34.05-9.9.1-13.89H194l-.22,0A83.7,83.7,0,0,0,197,332c6.34,23.09,41.67,28.53,63.86,28.53"/><rect class="cls-7" x="236.79" y="278.99" width="36.16" height="46.65"/><path class="cls-8" d="M273,305.39V279H236.79v20.54A39.75,39.75,0,0,0,273,305.39Z"/><path class="cls-7" d="M290.46,84.54H222.22a45.29,45.29,0,0,0-45.29,45.29l3.63,91.48c0,43.86,34.95,73.07,78.8,73.07s72.76-22,72.76-65.82l3.63-98.73a45.29,45.29,0,0,0-45.29-45.29"/><path class="cls-8" d="M211.15,157.13c3-3.8,3.79-11.28,9.19-12.85,5.19-1.5,10.15.2,15,2.11,19.67,7.71,42,6,62.7,5.73,10.59-.14,26,1.55,37-3.15l.71-19.14a45.29,45.29,0,0,0-45.29-45.29H222.22a45.29,45.29,0,0,0-45.29,45.29l1.55,39C190.59,170.09,204.15,166.07,211.15,157.13Z"/><path class="cls-9" d="M319.6,156.7c-.58.38-2.52-2.79-6.05-5.14a9.75,9.75,0,0,0-6.12-1.75,15.51,15.51,0,0,0-6.22,1.78c-3.64,2-5.42,3.46-6.54,4s-1.54.31-1.95-.07-.69-.82,0-2,2.36-3.13,6.68-5.47a16.76,16.76,0,0,1,8-1.89,11.93,11.93,0,0,1,7.8,3.17c3.78,3.54,4.68,7.25,4.35,7.39"/><path class="cls-9" d="M214.67,154.73c-.33-.27,1.2-3.18,4.6-6.07a15,15,0,0,1,6.73-3.15,12.33,12.33,0,0,1,7.55,1.17c4.11,2.24,5.18,4.52,5.69,5.6s0,1.58-.41,1.86-.93.45-1.83-.16-2.23-2.13-5.25-3.74a10,10,0,0,0-5.28-1.09,14.35,14.35,0,0,0-5.61,1.85c-3.38,2-5.71,4.18-6.19,3.73"/><path class="cls-9" d="M268.73,229.45c.14.32,1.45.18,3.38-.68a11.15,11.15,0,0,0,3.17-2.12,5.35,5.35,0,0,0,1.42-2.14,3.76,3.76,0,0,0-.51-3.13,16.33,16.33,0,0,0-6.54-5.14c-1.86-.89-3.35-1.05-3.4-.64s.86,1,2.43,2.19a27,27,0,0,1,5.26,4.92c.3.54.36.8.3,1a3.27,3.27,0,0,1-.75,1.31,15,15,0,0,1-2.35,2.16c-1.53,1.18-2.55,1.91-2.41,2.24"/><path class="cls-9" d="M301.25,182.14c0-6.34,2.52-11.48,5.63-11.48s5.62,5.14,5.62,11.48-2.52,11.48-5.62,11.48-5.63-5.15-5.63-11.48"/><path class="cls-9" d="M315.67,171.35c.5.14.66,1.52,0,3.24A8.89,8.89,0,0,1,312,179.1c-3.24,1.72-3.89.48-4-.51-.19-1.16-.22-1.75,1.95-2.9a17,17,0,0,0,3.38-2.57c1-1,1.83-2,2.37-1.77"/><path class="cls-9" d="M221.31,182.14c0-6.34,2.52-11.48,5.63-11.48s5.62,5.14,5.62,11.48-2.52,11.48-5.62,11.48-5.63-5.15-5.63-11.48"/><path class="cls-9" d="M217.47,171.35c-.49.14-.64,1.52,0,3.24a9,9,0,0,0,3.66,4.51c3.18,1.72,3.81.48,3.92-.51.19-1.16.21-1.75-1.91-2.9a16.64,16.64,0,0,1-3.31-2.57c-1-1-1.79-2-2.32-1.77"/><path class="cls-8" d="M213.09,207.43a1.81,1.81,0,1,1,1.81,1.81,1.81,1.81,0,0,1-1.81-1.81"/><path class="cls-8" d="M209.39,213.92a1.81,1.81,0,1,1,1.81,1.81,1.81,1.81,0,0,1-1.81-1.81"/><path class="cls-8" d="M219.2,215.12a1.81,1.81,0,1,1,1.81,1.81,1.81,1.81,0,0,1-1.81-1.81"/><path class="cls-8" d="M309.71,208.78a1.81,1.81,0,1,1,1.81,1.82,1.82,1.82,0,0,1-1.81-1.82"/><path class="cls-8" d="M304,214.37a1.81,1.81,0,1,1,1.81,1.81,1.81,1.81,0,0,1-1.81-1.81"/><path class="cls-8" d="M316.35,214.67a1.81,1.81,0,1,1,1.81,1.82,1.82,1.82,0,0,1-1.81-1.82"/><path class="cls-10" d="M281.56,248.19H250.93a7.07,7.07,0,0,0-6.83,8.88c2.48,9.23,10.08,14,23.56,12.86C280,268.88,285,261.8,287.06,256a5.84,5.84,0,0,0-5.5-7.81"/><path class="cls-11" d="M259.4,255.49c-6.42.08-11,1.95-14.24,4.51,3.23,7.29,10.54,10.95,22.5,9.93a23.36,23.36,0,0,0,12.71-4.59c-3.12-6.42-9.91-10-21-9.85"/><path class="cls-4" d="M316.57,72c-.45-1.36-60.68-10-62.49-10s-34.88,5-34.88,5-53.44,24.91-55.71,28.08-15.85,47.1-15.85,48.46-5,57.06-5,57.06l41.21-7.7,1.36-34c23.55-14.48,21.29-48.91,21.29-48.91C277.63,152.17,348.28,130,348.28,130l.45,1.81,5-32.15S317,73.36,316.57,72"/><path class="cls-7" d="M183.87,197.46s.38-24-16.82-29.44S142.18,186.59,148,207s25,27.41,35.9,8.83Z"/><path class="cls-9" d="M159.12,191.14c-.14.06-.63-1.14-.49-3.43a6.79,6.79,0,0,1,1.57-4,6.37,6.37,0,0,1,5.38-1.92c2.41.37,4.06,2.5,5,4.5a27.41,27.41,0,0,1,2,6.67,55,55,0,0,1,.79,7.22c0,2.32.47,5.25-1.38,7.88a5.68,5.68,0,0,1-3.68,2.3,6.16,6.16,0,0,1-3.71-.56,5.1,5.1,0,0,1-3-5.18,9.29,9.29,0,0,1,3-5.82c2.15-1.77,2.6-1.32,2.74-1.06s.13.54-1.36,2.35a8.76,8.76,0,0,0-1.92,4.76,2.56,2.56,0,0,0,1.71,2.59,3.26,3.26,0,0,0,4.12-.95c1.11-1.43,1-3.81.91-6.19a56.19,56.19,0,0,0-.63-6.87,26.18,26.18,0,0,0-1.6-6.1c-.72-1.82-1.88-3.21-3.15-3.55a4.93,4.93,0,0,0-3.87,1,5.7,5.7,0,0,0-1.66,3c-.48,2-.41,3.32-.7,3.4"/></g></g></svg>