<svg xmlns="http://www.w3.org/2000/svg" xmlns:xlink="http://www.w3.org/1999/xlink" viewBox="0 0 500 500"><defs><style>.cls-1{fill:none;}.cls-2{fill:#ef6085;}.cls-3{clip-path:url(#clip-path);}.cls-4{fill:#543229;}.cls-5{fill:#ba7b36;}.cls-6{fill:#dba54d;}.cls-7{fill:#3b577f;}.cls-8{fill:#f2d4a2;}.cls-9{fill:#ddac8a;}.cls-10{fill:#351c17;}.cls-11{fill:#633b35;}.cls-12{fill:#f4cfa2;}</style><clipPath id="clip-path"><path class="cls-1" d="M0,250C0,111.93,111.93,0,250,0S500,111.93,500,250,388.07,500,250,500,0,388.07,0,250"/></clipPath></defs><g id="Objects"><path class="cls-2" d="M0,250C0,111.93,111.93,0,250,0S500,111.93,500,250,388.07,500,250,500,0,388.07,0,250"/><g class="cls-3"><path class="cls-4" d="M309.18,47.71s-17.52-32-83.94-26.58-94.2,62.2-98.43,139.5S114.74,279,138.88,301.33s129.84,29.59,170.9,12.07,47.71-47.1,47.1-71.25S361.11,126.81,349,88.76c-12-37.84-39.85-41.05-39.85-41.05"/><path class="cls-5" d="M106.31,550.72H375l-4.82-162.88c-1.3-45.83-27.38-82.29-72.65-82.29H176.33c-45.28,0-63.91,32.73-65.22,78.55Z"/><path class="cls-6" d="M149,310.69a69.19,69.19,0,0,1,27.34-5.14H297.56a71.29,71.29,0,0,1,28.49,5.65c4.18,14.27,6.51,30.92,6.83,48.81l3.5,190.71H140.72l3.5-195.08c.31-16.7,1.82-31.91,4.77-44.95"/><path class="cls-7" d="M312.5,422.55V307a76.33,76.33,0,0,0-14.94-1.45h-9c.08,27.87.16,100.68-.93,102.51-1.36,2.26-98.28,1.36-99.64.91-1.11-.37-.41-75.53-.12-103.42h-11.5a81.4,81.4,0,0,0-10.12.69V413.49c0,22.93-12.08,38.39-23.84,45.63l-1.65,91.6H336.38l-1.79-97.25c-11.2-6.85-22.09-17.06-22.09-30.92"/><path class="cls-8" d="M236,332c31.76,1.2,37.81-17.2,38.45-26.43H208c-.62,8.76,1.68,25.43,28,26.43"/><rect class="cls-8" x="218.62" y="271.74" width="39.98" height="46.65"/><path class="cls-9" d="M236.37,304.81c8.18-.64,15.89-2.94,22.23-7.69V271.74h-40v32.85C224.2,306.22,231.87,305.17,236.37,304.81Z"/><path class="cls-8" d="M201.11,79.1h68.24a45.29,45.29,0,0,1,45.29,45.29L311,215.88c0,43.85-35,73.07-78.81,73.07s-72.76-25.59-72.76-69.45l1.32-94.5c0-25,15.33-45.9,40.34-45.9"/><path class="cls-9" d="M206.4,148c21.27-1.64,40.46-10.71,60.53-17.13a1.74,1.74,0,0,1,2.12,1.21c3.14,19,25.27,21.11,44.51,19.5l1.08-27.16A45.29,45.29,0,0,0,269.35,79.1H201.11c-25,0-40.34,20.89-40.34,45.9l-.27,19.44C175.75,146.68,191.09,149.15,206.4,148Z"/><path class="cls-10" d="M231.66,220.07c-.14.33-1.46.18-3.38-.68a11.24,11.24,0,0,1-3.18-2.12,5.45,5.45,0,0,1-1.42-2.14,3.81,3.81,0,0,1,.52-3.13,16.33,16.33,0,0,1,6.54-5.14c1.85-.88,3.34-1.06,3.4-.64s-.86,1-2.43,2.18a27.09,27.09,0,0,0-5.26,4.93c-.3.54-.36.79-.31,1a3.61,3.61,0,0,0,.76,1.3,15,15,0,0,0,2.35,2.16c1.53,1.18,2.55,1.91,2.41,2.24"/><path class="cls-10" d="M196.06,176.71c0-6.34-2.52-11.48-5.63-11.48s-5.62,5.14-5.62,11.48,2.52,11.47,5.62,11.47,5.63-5.14,5.63-11.47"/><path class="cls-10" d="M181.64,165.91c-.5.15-.66,1.53,0,3.25a9,9,0,0,0,3.73,4.51c3.24,1.72,3.88.47,4-.51.19-1.17.21-1.75-2-2.9a18.1,18.1,0,0,1-3.38-2.57c-1-1-1.82-2-2.36-1.78"/><path class="cls-10" d="M278.85,175.27c0-6.34-2.52-11.47-5.62-11.47s-5.62,5.13-5.62,11.47,2.51,11.48,5.62,11.48,5.62-5.14,5.62-11.48"/><path class="cls-10" d="M282.7,164.47c.49.16.64,1.53,0,3.26a9,9,0,0,1-3.66,4.51c-3.18,1.71-3.81.46-3.92-.52-.18-1.16-.21-1.75,1.92-2.9a16.68,16.68,0,0,0,3.3-2.57c1-1,1.79-1.95,2.33-1.78"/><path class="cls-4" d="M144.47,116.39s15.4,19.93,72.92,10,72-32.6,72-32.6-7.25,28.53,20.38,47.1c0,0-2.72,29,4.53,40.31s19-61.14,19-61.14-9.06-37.59-11.78-39.86S290.3,58.87,290.3,58.87s-31.7-7.24-34.41-8.15S217.39,47.1,216,47.1s-27.17,1.81-29.89,3.17-10.87,6.34-13.59,9.06-8.15,8.15-10,10.87-18.12,46.19-18.12,46.19"/><path class="cls-11" d="M270.55,73.11a1.75,1.75,0,0,1-2.53-1c-3-13.82-24.7-2.7-31.93,1.61a1.72,1.72,0,0,1-2.36-.62c-6.86-15.51-27.83-8.34-39.06-2.17-8,4.41-20.15,17.38-18,27.24a11.32,11.32,0,0,0,3.58,1.33c12,2.43,24.3-6.53,34.58-11.52a1.73,1.73,0,0,1,2.36,2.35c-2.93,5.93-1.57,8.57,5,6.84a84.62,84.62,0,0,0,13.23-4.87c6.62-3,13-6.59,19.62-9.49a1.75,1.75,0,0,1,2.53,1c3.73,12.46,19.6.13,24.6-5,1.31-1.35,7.8-7.72,6-10.1C285.8,65.38,272.55,72.21,270.55,73.11Z"/><path class="cls-10" d="M179.65,150.36c-.36-.29.79-2.7,3.58-5a13.55,13.55,0,0,1,5.37-2.61,12.56,12.56,0,0,1,6.07.25c3.54,1.13,4.83,2.69,5.38,3.52a1.23,1.23,0,0,1-.17,1.74,1.47,1.47,0,0,1-1.63.44c-.85-.17-2.13-1.07-4.71-1.88a11.74,11.74,0,0,0-4.33-.45,14.08,14.08,0,0,0-4.46,1.36c-2.71,1.37-4.64,3.06-5.1,2.64"/><path class="cls-10" d="M286.53,150.36c-.45.45-2.71-1.45-5.91-3a16.82,16.82,0,0,0-5.29-1.6,13.7,13.7,0,0,0-5.15.48,59.06,59.06,0,0,0-5.46,2.34,1.43,1.43,0,0,1-1.74-.3c-.4-.36-.7-.83-.09-1.84s2.13-2.71,6.15-4a14.77,14.77,0,0,1,6.88-.29,16.19,16.19,0,0,1,6.16,2.82c3.27,2.5,4.79,5.14,4.45,5.44"/><path class="cls-9" d="M286.23,192.93c.55.5-.87,2.85-2.64,4.73s-2.26,1.52-2.79,1-.93-1,.85-2.84,3.78-3.61,4.58-2.9"/><path class="cls-9" d="M292.87,195.05c.55.49-.86,2.85-2.64,4.72s-2.26,1.52-2.79,1-.92-1,.86-2.85,3.77-3.61,4.57-2.89"/><path class="cls-9" d="M180.55,196.86c.55.49-.86,2.85-2.64,4.72s-2.26,1.52-2.8,1-.91-1,.87-2.84,3.78-3.61,4.57-2.89"/><path class="cls-9" d="M187.2,199c.54.48-.87,2.84-2.65,4.72s-2.26,1.51-2.79,1-.93-1,.85-2.85,3.79-3.6,4.59-2.88"/><path class="cls-10" d="M256.94,243.36c.22.13-1,2.92-4.74,6s-10.39,5.47-17.6,5.37a58.24,58.24,0,0,1-10.12-.77,19.34,19.34,0,0,1-7.78-3.44c-3.89-3-4.78-6.14-4.45-6.24s1.8,2.34,5.55,4.64a19.67,19.67,0,0,0,7.13,2.56,75.58,75.58,0,0,0,9.64.51c6.88.07,12.83-1.69,16.49-4.2s5.51-4.72,5.88-4.41"/><path class="cls-12" d="M307.69,192s-.37-24,16.83-29.43,24.87,18.57,19.08,38.95-28.66,31-39.53,12.45Z"/><path class="cls-10" d="M335.14,181.61a9.65,9.65,0,0,0-1.6-2.91c-1.16-1.64-4.66-3.09-7-.31-2.4,2.62-4,6.89-5.33,11.38-.32,1.14-.61,2.3-.89,3.48a11.35,11.35,0,0,0-.28,3.33,9.3,9.3,0,0,0,2.48,5.92c1.58,1.45,2.69.86,3.62-.5a12.41,12.41,0,0,0,1.56-4.2,5.7,5.7,0,0,0-1.1-4.87c-1.59-1.62-1.86-1.69-1.7-2.1.06-.18.15-.36.58-.35a4.27,4.27,0,0,1,2.44,1.11,7.11,7.11,0,0,1,2.21,6.54,13.88,13.88,0,0,1-1.8,5.29,5.39,5.39,0,0,1-3.2,2.48,5,5,0,0,1-4.42-1.44,11.62,11.62,0,0,1-3.28-7.7,13.51,13.51,0,0,1,.39-4.08c.3-1.21.62-2.4,1-3.56,1.48-4.63,3.2-9,6.23-12.05a5.91,5.91,0,0,1,9.38.79c1.36,2.09,1.11,3.78.76,3.75"/></g></g></svg>