<svg xmlns="http://www.w3.org/2000/svg" xmlns:xlink="http://www.w3.org/1999/xlink" viewBox="0 0 500 500"><defs><style>.cls-1{fill:none;}.cls-2{fill:#77b0e8;}.cls-3{clip-path:url(#clip-path);}.cls-4{fill:#9e6430;}.cls-5{fill:#f4cfa2;}.cls-6{fill:#89293e;}.cls-7{fill:#fff;}.cls-8{fill:#a53245;}.cls-9{fill:#dda383;}.cls-10{fill:#351c17;}.cls-11{fill:#b27538;}.cls-12{fill:#c48743;}</style><clipPath id="clip-path"><path class="cls-1" d="M0,250C0,111.93,111.93,0,250,0S500,111.93,500,250,388.07,500,250,500,0,388.07,0,250"/></clipPath></defs><g id="Objects"><path class="cls-2" d="M0,250C0,111.93,111.93,0,250,0S500,111.93,500,250,388.07,500,250,500,0,388.07,0,250"/><g class="cls-3"><path class="cls-4" d="M386.9,105.6l-48,93.6H164.07s-22.64-74-23.25-91.78,18.72-50.13,41.67-54c0,0,8.15-40.77,64.31-43.48s87.87,47.7,131.65,40.76A73.3,73.3,0,0,1,348.55,76s7.85,18.43,38.35,29.59"/><path class="cls-5" d="M377.41,346.23c-12.26-5.1-27.07-8.29-44.53-8.29H180.09c-22.23,0-40.45,3.14-55.08,8.37-1.48,28.39-1.91,80.73-2,124.09-.07,39.29.15,71.19.15,71.19h254.2s.4-32,.63-71.19c.28-44,.34-97-.6-124.17"/><path class="cls-6" d="M385.08,455.85H116.37l1.19-84c1.58-36.24,24.68-75.63,79.9-75.63h117.6c45.28,0,67.54,43.38,68.84,73.21Z"/><polygon class="cls-7" points="116.59 440.29 116.37 455.85 385.08 455.85 384.88 440.29 116.59 440.29"/><path class="cls-8" d="M349.33,306.27a61.68,61.68,0,0,0-34.27-10H197.46c-17.12,0-31.14,3.79-42.4,10.1-1.13,34.19-1.46,97.24-1.52,149.48-.06,47.31.12,85.74.12,85.74H349.31s.31-38.53.49-85.74c.2-53,.24-116.92-.47-149.58"/><path class="cls-7" d="M217.52,342.92l22.64-22h30.5l19.92,24.75s11.48-13.29,12.69-29-1.21-25.36-10.57-33.81-19.93-10.57-40.47-10.57-34.71,6.34-43.47,17.51-10.87,22.34,8.76,53.14"/><path class="cls-5" d="M255.86,349.56l-15.7-28.67s-10.87-.32-16-26.28h61.59s-4.22,21.74-15.09,26.28Z"/><rect class="cls-5" x="235.2" y="274.53" width="39.47" height="34.43"/><path class="cls-9" d="M274.67,297.57v-23H235.2v23.34C246.59,304.44,262.12,303.46,274.67,297.57Z"/><path class="cls-9" d="M183.34,181.93s-4.61-25.47-22.07-25-22.59,27.4-13.86,46.14,30.8,14.9,32.86,7.69,3.07-28.84,3.07-28.84"/><path class="cls-9" d="M327.72,175.57s4.32-26.15,20.66-25.66,21.13,28.13,13,47.37-28.82,15.3-30.73,7.9-2.89-29.61-2.89-29.61"/><path class="cls-5" d="M255.85,284h0c-43.59,0-77.55-24.59-77.55-67.78l-1.38-82.56c0-29.25,23.93-53,53.46-53h50.94c29.53,0,53.46,16.47,53.46,45.73l-1.37,93c0,43.21-34,64.62-77.56,64.62"/><path class="cls-9" d="M184.07,124.72c4.19-5.27,9.47-6.39,15.81-3.91,9.82,3.83,19.69,7.73,29.68,11.11,31.4,10.61,72.82,14.66,105.12,1l.1-6.41c0-29.26-23.93-45.73-53.46-45.73H230.38c-29.53,0-53.46,23.72-53.46,53l.08,4.69A46.13,46.13,0,0,1,184.07,124.72Z"/><path class="cls-10" d="M157.65,178.16c-.13.07-.63-1.16-.49-3.48a6.92,6.92,0,0,1,1.59-4,6.45,6.45,0,0,1,5.45-1.93c2.45.36,4.11,2.53,5,4.55a27.23,27.23,0,0,1,2,6.77,53.05,53.05,0,0,1,.8,7.32c0,2.35.49,5.33-1.39,8a5.65,5.65,0,0,1-3.73,2.33,6.1,6.1,0,0,1-3.76-.57,5.12,5.12,0,0,1-3.07-5.24,9.37,9.37,0,0,1,3-5.91c2.18-1.8,2.63-1.34,2.77-1.08s.14.54-1.37,2.39a8.87,8.87,0,0,0-1.95,4.83,2.62,2.62,0,0,0,1.73,2.63,3.32,3.32,0,0,0,4.18-1c1.13-1.46,1-3.88.92-6.29a58,58,0,0,0-.64-7,27.24,27.24,0,0,0-1.61-6.18c-.74-1.86-1.91-3.25-3.2-3.61a5,5,0,0,0-3.92,1,5.84,5.84,0,0,0-1.68,3c-.49,2-.42,3.37-.72,3.45"/><path class="cls-10" d="M355.3,170.54c-.08,0-.25-.24-.46-.78a10.91,10.91,0,0,0-1-2.23,3.54,3.54,0,0,0-2.57-2,5.45,5.45,0,0,0-4,1.66c-2.61,2.3-4.62,6.23-5.52,10.56-.74,4.23-.85,9.58,1.06,13.29,1.09,1.72,2.38,1.84,3.5.91a5.87,5.87,0,0,0,1.91-3.41c.52-2.56,0-4-.64-4.7a7.17,7.17,0,0,0-1.52-1.16.6.6,0,0,1-.31-.55c0-.18.05-.38.46-.49a3.33,3.33,0,0,1,2.64.77c1.41,1,2.36,3.55,1.82,6.55a8.12,8.12,0,0,1-2.71,5.06,4.71,4.71,0,0,1-3.9,1.11,5.54,5.54,0,0,1-3.55-2.69,17.2,17.2,0,0,1-1.87-7.73,29.21,29.21,0,0,1,.63-7.44c1.11-4.75,3.38-9,6.59-11.55a7.25,7.25,0,0,1,5.46-1.86,4.78,4.78,0,0,1,2.34,1.18,7.36,7.36,0,0,1,1.13,1.75,6.8,6.8,0,0,1,.59,2.68c0,.63,0,1-.14,1"/><path class="cls-10" d="M211.78,175.74c0-6.42,2.78-11.63,6.2-11.63s6.19,5.21,6.19,11.63-2.77,11.62-6.19,11.62-6.2-5.2-6.2-11.62"/><path class="cls-10" d="M290.72,175.74c0-6.42,2.78-11.63,6.2-11.63s6.2,5.21,6.2,11.63-2.78,11.62-6.2,11.62-6.2-5.2-6.2-11.62"/><path class="cls-10" d="M281.75,237.17c.28.21-1,2.76-4.17,6.17a19.83,19.83,0,0,1-6.73,4.92,30.44,30.44,0,0,1-9.94,1.74,43,43,0,0,1-10-.79,18.45,18.45,0,0,1-7.59-3.41c-3.73-2.89-5.13-5.49-4.86-5.69s2.23,1.82,5.95,4.09c3.58,2.45,9.62,3.25,16.37,3.07A33.14,33.14,0,0,0,270,245.9a20.77,20.77,0,0,0,6.28-4c3.34-2.9,5.2-5,5.51-4.77"/><path class="cls-10" d="M258.66,222.68c-.23.29-1.7-.38-3.82-1.81a43.06,43.06,0,0,1-3.59-2.75,23.78,23.78,0,0,1-2-1.94,5.9,5.9,0,0,1-1.05-1.54,2.83,2.83,0,0,1-.15-1.35,3.1,3.1,0,0,1,.52-1.17,37.53,37.53,0,0,1,7.46-7c2.06-1.5,3.48-2.25,3.72-2s-.72,1.56-2.43,3.41-4.39,4.35-6.46,7c-.62-.39,1.09,1.7,2.1,2.67l3.09,3.1c1.77,1.79,2.8,3,2.58,3.3"/><path class="cls-9" d="M204.08,192.79c.45.32-1.2,3.13-3.13,5.58s-2.32,2.23-2.76,1.89-.74-.69,1.2-3.13,4-4.81,4.69-4.34"/><path class="cls-9" d="M211.33,193c.44.33-1.21,3.14-3.13,5.58s-2.33,2.23-2.76,1.9-.74-.68,1.19-3.13,4-4.82,4.7-4.35"/><path class="cls-9" d="M314.36,194.37c.45.32-1.2,3.14-3.13,5.59s-2.33,2.22-2.75,1.89-.74-.69,1.18-3.13,4-4.82,4.7-4.35"/><path class="cls-9" d="M321.61,194.6c.45.32-1.2,3.14-3.13,5.58s-2.33,2.23-2.76,1.89-.74-.68,1.19-3.12,4-4.82,4.7-4.35"/><path class="cls-10" d="M311.87,150.44c-.53.45-2.95-2.72-7.1-4.61-4.13-2.2-9.8-.66-13.64,1.6s-5.73,3.94-6.91,4.54-1.59.42-2,.06-.7-.82,0-2.06,2.48-3.35,6.93-6a21,21,0,0,1,8.25-2.67,13.55,13.55,0,0,1,8.66,2.05c4.65,3.06,6.11,6.94,5.79,7.1"/><path class="cls-10" d="M200.23,152.25c-.33-.22,1.34-4,5.46-7.77a18.5,18.5,0,0,1,8.18-4.19,16.63,16.63,0,0,1,9.2,1.09,18.74,18.74,0,0,1,5.46,3.44,11.08,11.08,0,0,1,2.24,2.59c.78,1.33.46,1.79,0,2.12s-.87.55-2.05-.15-3.05-2.5-7.21-4.32a14.73,14.73,0,0,0-7.1-1.14,17.69,17.69,0,0,0-7,2.81c-4.09,2.78-6.64,6-7.17,5.52"/><path class="cls-11" d="M348.55,76a73.3,73.3,0,0,0,29.9-25.36C334.67,57.59,303,7.17,246.8,9.89s-64.31,43.48-64.31,43.48-13.59,40.76,58.27,65.52,135-6.34,146.14-13.29C356.4,94.44,348.55,76,348.55,76"/><path class="cls-12" d="M287.26,87.71a1.73,1.73,0,0,1-.87-3.21c3.23-2,6.37-4.06,9.48-6.22-7.56-1.16-15.27-.64-22.85-1.83-1.75-.28-1.54-2.91,0-3.33,2.92-.8,14.61-5,6.88-8.92a25,25,0,0,0-10.73-2.34,1.72,1.72,0,0,1,0-3.44A21.46,21.46,0,0,0,274.52,57c-7.49-6-20.12-7.58-29-7.88-1.59-.06-3.34-.08-5.15,0-9.14,1.13-18.23,2.88-24.65,9.84,10,5.94,22.87,4.94,34.05,6.47,1.91.26,1.35,2.77,0,3.32-6.93,2.81-14.52,4.12-20.64,8.48,27,15.54,66.8,26.54,95.39,10.25C312.15,88.26,299.7,87.75,287.26,87.71Z"/><path class="cls-7" d="M251.94,395.91a5.13,5.13,0,1,1,5.13,5.13,5.12,5.12,0,0,1-5.13-5.13"/></g></g></svg>