<svg xmlns="http://www.w3.org/2000/svg" viewBox="0 0 1920 700"><defs><style>.cls-1{fill:#dfdfdf;}.cls-2{fill:#a0a0a0;}</style></defs><g id="Objects"><rect class="cls-1" width="1920" height="700"/><path class="cls-2" d="M818.46,234.89h283.08V463.58c-9,1.55-248.17,2.17-283.08.66Zm17.07,212.16h251.16V253.32c-1.28-1.56-2.17-2.67-2.9-3.57H838.52l-3,3Z"/><path class="cls-2" d="M1067.13,427.93H1050l-18.65-18.64c-2.37-7.43-4.93-15.68-7.64-23.88-1.77-5.35-4.19-10.51-5.53-16a78.64,78.64,0,0,0-7.46-18.41c-3.76-7-5.68-15.07-10.74-21.27-1.87-2.29.38-5.82-2.79-7.15-5.15.47-.82,6.24-4.49,7.26-2.66,11-6.84,21.49-10.58,32.14-.56,1.58-.15,3.49-.65,5.11-1.39,4.52-2.83,8.85-8.37,10.37-14.42,3.95-28.21,9.82-42.55,14a7.67,7.67,0,0,1-2.57,0l-36.29,36.27h-36.6V269.3h212.06ZM942.4,320.44c0-5,.74-10.79-.3-16.24a12.89,12.89,0,0,0-5.75-8.25c1.28-4.21-3.52-2.37-4.39-4.4-1.7-4-6.05-2.58-8.94-4.36-4-2.48-9-.24-11.94-.78-11.67,3.69-18.52,10.68-22,22.38.07,4.73-.75,11,2.15,17.12,2.57,3.19,5.78,6,8.79,9,3.6,3.58,7.69,5.49,12.88,5.16,3.89-.24,7.81-.05,11.73-.05C933.69,337.06,939.38,330.82,942.4,320.44Z"/></g></svg>